<svg width="334" height="166" viewBox="0 0 334 166" fill="none" xmlns="http://www.w3.org/2000/svg">
<path d="M43.7135 61.3165C59.6202 56.0744 86.7131 50.2763 111.505 61.6739C122.969 66.916 134.473 76.0897 138.955 79.6639C151.173 89.3538 154.584 94.7151 166.207 105.279C170.173 108.893 186.199 123.467 199.924 130.655C208.532 135.183 232.491 145.309 273.626 132.482" stroke="#303030" stroke-width="2.38005" stroke-miterlimit="10"/>
<path d="M46.1729 79.3862H61.9209V101.308H57.7161V83.2781H50.4173V101.308H46.1729V79.3862V79.3862Z" fill="#303030"/>
<path d="M73.6228 79.3862H77.8672L86.2767 101.308H81.953L80.2473 96.7805H71.3221L69.537 101.308H65.2133L73.6228 79.3862ZM75.7648 85.1843L72.8294 92.7298H78.7002L75.7648 85.1843Z" fill="#303030"/>
<path d="M89.4898 79.3862H93.9325C96.3126 79.3862 98.0579 79.6245 99.0893 80.0613C100.16 80.4982 100.993 81.213 101.588 82.2058C102.183 83.1987 102.501 84.39 102.501 85.78C102.501 87.3288 102.104 88.5996 101.311 89.5924C100.517 90.5853 99.4463 91.3001 98.0579 91.6972C97.2646 91.9355 95.7969 92.0546 93.6549 92.0546V101.347H89.4898V79.3862ZM93.6549 87.9642H94.9639C95.9952 87.9642 96.7489 87.8848 97.1456 87.7259C97.5423 87.5671 97.8596 87.3288 98.0976 86.9714C98.3356 86.614 98.4546 86.2169 98.4546 85.7403C98.4546 84.9063 98.1373 84.2709 97.4629 83.8738C96.9869 83.5958 96.1142 83.4369 94.8052 83.4369H93.6152V87.9642H93.6549Z" fill="#303030"/>
<path d="M106.626 79.3862H110.831V86.9317L116.781 79.3862H121.779L114.123 89.1556L122.533 101.308H117.574L110.831 91.5781V101.308H106.626V79.3862V79.3862Z" fill="#303030"/>
<path d="M53.3131 116.041H57.5178L64.5786 134.071H66.9983V141.259H62.9523V137.963H47.8786V141.259H43.8326V134.071H46.2523L53.3131 116.041ZM55.4551 121.839L50.6554 134.031H60.2549L55.4551 121.839Z" fill="#303030"/>
<path d="M69.6957 116.041H74.1385C76.5185 116.041 78.2639 116.279 79.2952 116.716C80.3663 117.153 81.1993 117.868 81.7943 118.861C82.3893 119.853 82.7066 121.045 82.7066 122.435C82.7066 123.984 82.31 125.254 81.5166 126.247C80.7233 127.24 79.6522 127.955 78.2639 128.352C77.4705 128.59 76.0028 128.709 73.8608 128.709V138.002H69.6957V116.041V116.041ZM73.8608 124.579H75.1698C76.2012 124.579 76.9549 124.5 77.3515 124.341C77.7482 124.182 78.0655 123.944 78.3035 123.586C78.5416 123.229 78.6606 122.832 78.6606 122.355C78.6606 121.521 78.3432 120.886 77.6689 120.489C77.1929 120.211 76.3202 120.052 75.0112 120.052H73.8211V124.579H73.8608Z" fill="#303030"/>
<path d="M92.9409 132.919L85.166 116.001H89.8865L95.0432 128.233L99.2877 116.001H103.532L97.701 131.688C96.7093 134.388 95.5986 136.175 94.4482 137.089C93.2582 138.002 92.0285 138.439 90.6798 138.439C88.4981 138.439 86.5147 137.367 84.69 135.262L87.4271 132.522C88.5378 133.792 89.6088 134.428 90.6798 134.428C91.1558 134.428 91.5525 134.309 91.8698 134.07C92.1475 133.832 92.5045 133.475 92.9409 132.919Z" fill="#303030"/>
<path d="M115.988 128.233L115.432 127.597L109.244 137.962H104.286L112.378 125.254L105.039 116.001H110.077L115.988 123.864V116.001H120.232V123.864L126.182 116.001H131.22L123.881 125.254L131.974 137.923H127.015L120.827 127.557L120.272 128.193V137.923H116.027V128.233H115.988Z" fill="#303030"/>
<path d="M134.869 137.963V116.041H146.333V120.131H139.034V124.301H139.947C141.811 124.301 143.319 124.5 144.469 124.897C145.659 125.294 146.611 126.088 147.404 127.2C148.198 128.312 148.555 129.663 148.555 131.211C148.555 132.76 148.277 133.952 147.682 134.865C147.087 135.778 146.294 136.533 145.262 137.089C144.231 137.645 142.803 137.963 140.978 137.963H134.869V137.963ZM139.034 128.034V133.991H140.066C141.97 133.991 143.16 133.753 143.676 133.237C144.191 132.72 144.429 132.085 144.429 131.211C144.429 129.067 142.922 128.034 139.867 128.034H139.034Z" fill="#303030"/>
<path d="M152.204 137.963V116.041H156.369V124.301H157.281C159.027 124.301 160.455 124.5 161.605 124.897C162.756 125.294 163.747 126.049 164.62 127.2C165.493 128.352 165.889 129.702 165.889 131.291C165.889 132.8 165.532 134.071 164.818 135.103C164.104 136.136 163.271 136.89 162.28 137.327C161.328 137.764 160.019 137.963 158.352 137.963H152.204ZM156.369 128.034V133.991H157.4C159.106 133.991 160.296 133.793 160.852 133.356C161.407 132.919 161.724 132.204 161.724 131.172C161.724 129.107 160.217 128.074 157.202 128.074H156.369V128.034ZM168.904 116.041H173.029V137.963H168.904V116.041Z" fill="#303030"/>
<path d="M235.149 93.0474C236.577 93.4842 240.702 94.5168 245.502 92.8091C250.817 90.9426 253.515 87.011 254.268 85.7799C261.805 94.6359 275.252 94.9933 282.948 87.1302C290.366 79.5847 290.326 66.7177 282.313 58.9737C284.892 39.6335 271.682 22.9938 256.371 20.9684C239.433 18.7445 220.908 34.5502 221.582 56.3129" stroke="#303030" stroke-width="2.38005" stroke-miterlimit="10"/>
<path d="M254.268 38.0054V136.295" stroke="#303030" stroke-width="2.38005" stroke-miterlimit="10"/>
<path d="M242.527 45.8687L254.268 52.8581L265.455 45.8687" stroke="#303030" stroke-width="2.38005" stroke-miterlimit="10"/>
<path d="M238.481 63.3022L254.665 77.9166L270.056 63.3022" stroke="#303030" stroke-width="2.38005" stroke-miterlimit="10"/>
<path d="M217.378 136.692V59.4106" stroke="#303030" stroke-width="2.38005" stroke-miterlimit="10"/>
<path d="M196.711 126.922C199.369 130.258 205.398 130.298 217.378 130.258C232.332 130.219 234.673 128.114 235.625 127.121C237.846 124.698 238.56 121.323 237.886 112.109C236.537 93.3649 231.579 79.7434 230.904 77.9563C225.351 62.9051 221.265 51.9047 216.346 52.1032C212.419 52.3018 209.563 61.0386 203.851 78.552C200.479 88.8774 199.21 95.986 196.671 110.243C194.767 121.204 194.688 124.381 196.711 126.922Z" stroke="#303030" stroke-width="2.38005" stroke-miterlimit="10"/>
<path d="M210.872 73.3892L217.179 81.014" stroke="#303030" stroke-width="2.38005" stroke-miterlimit="10"/>
<path d="M210.634 86.6934L217.378 92.6503" stroke="#303030" stroke-width="2.38005" stroke-miterlimit="10"/>
<path d="M226.62 87.9639L217.378 94.5165" stroke="#303030" stroke-width="2.38005" stroke-miterlimit="10"/>
<path d="M207.976 94.5166L217.378 103.77" stroke="#303030" stroke-width="2.38005" stroke-miterlimit="10"/>
<path d="M227.017 98.0513L217.378 106.192" stroke="#303030" stroke-width="2.38005" stroke-miterlimit="10"/>
<path d="M231.46 112.109L217.378 123.269" stroke="#303030" stroke-width="2.38005" stroke-miterlimit="10"/>
<path d="M206.429 107.265L217.378 115.644" stroke="#303030" stroke-width="2.38005" stroke-miterlimit="10"/>
<path d="M181.955 82.2852C186.873 87.2493 194.688 87.4082 199.369 83.1589C204.525 78.4728 204.644 69.6168 198.932 64.4144C200.479 50.8326 190.999 39.8718 181.518 39.157C171.244 38.3627 159.265 49.4029 160.614 64.4144C154.822 71.1656 156.329 81.213 162.756 85.6608C168.468 89.6321 177.076 88.4407 181.955 82.2852Z" stroke="#303030" stroke-width="2.38005" stroke-miterlimit="10"/>
<path d="M180.09 50.4751V115.843" stroke="#303030" stroke-width="2.38005" stroke-miterlimit="10"/>
<path d="M172.236 55.7173L180.09 60.3637L187.587 55.7173" stroke="#303030" stroke-width="2.38005" stroke-miterlimit="10"/>
<path d="M169.499 67.3135L180.368 77.0431L190.681 67.3135" stroke="#303030" stroke-width="2.38005" stroke-miterlimit="10"/>
</svg>
