<svg width="56" height="37" viewBox="0 0 56 37" fill="none" xmlns="http://www.w3.org/2000/svg">
<path d="M18.1364 3.54883L26.1492 4.30252" stroke="#303030" stroke-width="1.98337" stroke-miterlimit="10"/>
<path d="M42.3732 2.47656L37.2164 2L45.3482 26.5823" stroke="#303030" stroke-width="1.98337" stroke-miterlimit="10"/>
<path d="M40.2311 11.1736L28.8466 25.0334L22.9361 9.54541L12.3449 23.4846C17.8587 24.0009 23.3328 24.5172 28.8466 25.0334" stroke="#303030" stroke-width="1.98337" stroke-miterlimit="10"/>
<path d="M23.3725 4.18457L22.8171 10.1018" stroke="#303030" stroke-width="1.98337" stroke-miterlimit="10"/>
<path d="M10.9169 32.5396C16.3938 32.5396 20.8337 28.0945 20.8337 22.6113C20.8337 17.1281 16.3938 12.6831 10.9169 12.6831C5.43993 12.6831 1 17.1281 1 22.6113C1 28.0945 5.43993 32.5396 10.9169 32.5396Z" stroke="#303030" stroke-width="1.98337" stroke-miterlimit="10"/>
<path d="M44.9119 35.7559C50.3888 35.7559 54.8287 31.3109 54.8287 25.8276C54.8287 20.3444 50.3888 15.8994 44.9119 15.8994C39.4349 15.8994 34.995 20.3444 34.995 25.8276C34.995 31.3109 39.4349 35.7559 44.9119 35.7559Z" stroke="#303030" stroke-width="1.98337" stroke-miterlimit="10"/>
</svg>
