<svg width="58" height="58" viewBox="0 0 58 58" fill="none" xmlns="http://www.w3.org/2000/svg">
<path d="M25 9.58606C11.193 9.58606 0 19.6211 0 32.0001C0 36.5621 1.524 40.8031 4.135 44.3431C3.792 48.4331 2.805 54.1941 0 57.0001C0 57.0001 8.47 55.8091 14.273 52.3491C14.279 52.3451 14.282 52.3391 14.287 52.3361C16.081 51.2301 18.096 49.9391 18.589 49.5531C18.89 49.1361 19.468 49.0101 19.917 49.2821C20.215 49.4631 20.404 49.7941 20.405 50.1421C20.408 50.7241 20.397 50.8861 16.754 53.1601C19.336 53.9701 22.109 54.4141 24.999 54.4141C38.806 54.4141 49.999 44.3791 49.999 32.0001C49.999 19.6211 38.807 9.58606 25 9.58606Z" fill="#578FFE"/>
<path d="M58 23.414C58 11.035 46.807 1 33 1C23.03 1 14.425 6.234 10.411 13.804C14.518 11.153 19.553 9.586 25 9.586C38.807 9.586 50 19.621 50 32C50 36.735 48.358 41.124 45.563 44.743C51.162 47.448 58 48.414 58 48.414C55.195 45.609 54.208 39.848 53.865 35.757C56.476 32.217 58 27.976 58 23.414Z" fill="#5479C4"/>
<path d="M32.5 26H18.5C17.948 26 17.5 25.553 17.5 25C17.5 24.447 17.948 24 18.5 24H32.5C33.052 24 33.5 24.447 33.5 25C33.5 25.553 33.052 26 32.5 26Z" fill="#F1F5FE"/>
<path d="M38 33H13C12.448 33 12 32.553 12 32C12 31.447 12.448 31 13 31H38C38.552 31 39 31.447 39 32C39 32.553 38.552 33 38 33Z" fill="#F1F5FE"/>
<path d="M38 40H13C12.448 40 12 39.553 12 39C12 38.447 12.448 38 13 38H38C38.552 38 39 38.447 39 39C39 39.553 38.552 40 38 40Z" fill="#F1F5FE"/>
<path d="M12.6511 47.2568H21.6511V52.2568L16.7756 53.118L13.2757 51.6181L12.6511 47.2568Z" fill="#578FFE"/>
</svg>
